<mxfile host="app.diagrams.net" agent="Mozilla/5.0 (Windows NT 10.0; Win64; x64) AppleWebKit/537.36 (KHTML, like Gecko) Chrome/128.0.0.0 Safari/537.36" version="24.7.10">
  <diagram name="Trang-1" id="bqBrmUBVX1bRdY0svmOa">
    <mxGraphModel grid="1" page="1" gridSize="10" guides="1" tooltips="1" connect="1" arrows="1" fold="1" pageScale="1" pageWidth="827" pageHeight="1169" math="0" shadow="0">
      <root>
        <mxCell id="0" />
        <mxCell id="1" parent="0" />
        <mxCell id="J-1L54mdmwo8_7TflUuM-1" value="User" style="shape=umlActor;verticalLabelPosition=bottom;verticalAlign=top;html=1;outlineConnect=0;whiteSpace=wrap;align=center;direction=east;" vertex="1" parent="1">
          <mxGeometry x="50" y="-220" width="50" height="80" as="geometry" />
        </mxCell>
        <mxCell id="Reat6RJ21bzE8wcKO5tI-60" style="edgeStyle=orthogonalEdgeStyle;rounded=0;orthogonalLoop=1;jettySize=auto;html=1;exitX=0.5;exitY=0.5;exitDx=0;exitDy=0;exitPerimeter=0;" edge="1" parent="1" source="J-1L54mdmwo8_7TflUuM-3">
          <mxGeometry relative="1" as="geometry">
            <mxPoint x="50" y="520" as="targetPoint" />
          </mxGeometry>
        </mxCell>
        <mxCell id="J-1L54mdmwo8_7TflUuM-3" value="Admin" style="shape=umlActor;verticalLabelPosition=bottom;verticalAlign=top;html=1;outlineConnect=0;" vertex="1" parent="1">
          <mxGeometry x="40" y="500" width="30" height="60" as="geometry" />
        </mxCell>
        <mxCell id="J-1L54mdmwo8_7TflUuM-6" value="" style="endArrow=classic;html=1;rounded=0;exitX=1;exitY=0.3333333333333333;exitDx=0;exitDy=0;exitPerimeter=0;entryX=0;entryY=0.5;entryDx=0;entryDy=0;" edge="1" parent="1" target="J-1L54mdmwo8_7TflUuM-7" source="J-1L54mdmwo8_7TflUuM-1">
          <mxGeometry width="50" height="50" relative="1" as="geometry">
            <mxPoint x="100" y="-130.5" as="sourcePoint" />
            <mxPoint x="290" y="-30" as="targetPoint" />
          </mxGeometry>
        </mxCell>
        <mxCell id="J-1L54mdmwo8_7TflUuM-7" value="Account management" style="ellipse;whiteSpace=wrap;html=1;" vertex="1" parent="1">
          <mxGeometry x="280" y="-70" width="120" height="80" as="geometry" />
        </mxCell>
        <mxCell id="J-1L54mdmwo8_7TflUuM-8" value="" style="endArrow=classic;html=1;rounded=0;entryX=0;entryY=0.5;entryDx=0;entryDy=0;exitX=1;exitY=0.3333333333333333;exitDx=0;exitDy=0;exitPerimeter=0;" edge="1" parent="1" source="J-1L54mdmwo8_7TflUuM-3" target="J-1L54mdmwo8_7TflUuM-11">
          <mxGeometry width="50" height="50" relative="1" as="geometry">
            <mxPoint x="80" y="330" as="sourcePoint" />
            <mxPoint x="270" y="270" as="targetPoint" />
          </mxGeometry>
        </mxCell>
        <mxCell id="J-1L54mdmwo8_7TflUuM-11" value="Manage product" style="ellipse;whiteSpace=wrap;html=1;" vertex="1" parent="1">
          <mxGeometry x="200" y="290" width="120" height="80" as="geometry" />
        </mxCell>
        <mxCell id="J-1L54mdmwo8_7TflUuM-23" value="Sơ đồ Use Case" style="whiteSpace=wrap;html=1;align=center;fontStyle=1;fontSize=19;" vertex="1" parent="1">
          <mxGeometry x="40" y="-680" width="410" height="60" as="geometry" />
        </mxCell>
        <mxCell id="J-1L54mdmwo8_7TflUuM-24" value="Sơ đồ UML" style="rounded=0;whiteSpace=wrap;html=1;fontStyle=1;fontSize=19;" vertex="1" parent="1">
          <mxGeometry x="40" y="890" width="340" height="60" as="geometry" />
        </mxCell>
        <mxCell id="J-1L54mdmwo8_7TflUuM-25" value="Sơ đồ Lớp (Class Diagram)" style="rounded=0;whiteSpace=wrap;html=1;fontStyle=1;fontSize=16;" vertex="1" parent="1">
          <mxGeometry x="80" y="1060" width="280" height="60" as="geometry" />
        </mxCell>
        <mxCell id="J-1L54mdmwo8_7TflUuM-26" value="User" style="rounded=0;whiteSpace=wrap;html=1;fillColor=#ffe6cc;strokeColor=#d79b00;" vertex="1" parent="1">
          <mxGeometry x="40" y="1200" width="120" height="40" as="geometry" />
        </mxCell>
        <mxCell id="Reat6RJ21bzE8wcKO5tI-4" value="" style="endArrow=classic;html=1;rounded=0;shape=arrow;entryX=0.283;entryY=0.02;entryDx=0;entryDy=0;entryPerimeter=0;exitX=0.667;exitY=1;exitDx=0;exitDy=0;exitPerimeter=0;" edge="1" parent="1" source="J-1L54mdmwo8_7TflUuM-7" target="Reat6RJ21bzE8wcKO5tI-9">
          <mxGeometry relative="1" as="geometry">
            <mxPoint x="340" y="10" as="sourcePoint" />
            <mxPoint x="210" y="120" as="targetPoint" />
          </mxGeometry>
        </mxCell>
        <mxCell id="Reat6RJ21bzE8wcKO5tI-6" value="" style="endArrow=classic;html=1;rounded=0;shape=flexArrow;exitX=1;exitY=0.5;exitDx=0;exitDy=0;entryX=0;entryY=0.5;entryDx=0;entryDy=0;" edge="1" parent="1" source="J-1L54mdmwo8_7TflUuM-7" target="Reat6RJ21bzE8wcKO5tI-44">
          <mxGeometry relative="1" as="geometry">
            <mxPoint x="390" y="10" as="sourcePoint" />
            <mxPoint x="467.57359312880726" y="91.7157287525381" as="targetPoint" />
            <Array as="points" />
          </mxGeometry>
        </mxCell>
        <mxCell id="Reat6RJ21bzE8wcKO5tI-9" value="Log in" style="ellipse;whiteSpace=wrap;html=1;" vertex="1" parent="1">
          <mxGeometry x="420" y="140" width="120" height="80" as="geometry" />
        </mxCell>
        <mxCell id="Reat6RJ21bzE8wcKO5tI-13" value="" style="endArrow=classic;html=1;rounded=0;exitX=1;exitY=0.3333333333333333;exitDx=0;exitDy=0;exitPerimeter=0;entryX=0;entryY=0.5;entryDx=0;entryDy=0;" edge="1" parent="1" source="J-1L54mdmwo8_7TflUuM-1" target="Reat6RJ21bzE8wcKO5tI-14">
          <mxGeometry width="50" height="50" relative="1" as="geometry">
            <mxPoint x="100" y="-120" as="sourcePoint" />
            <mxPoint x="280" y="-400" as="targetPoint" />
          </mxGeometry>
        </mxCell>
        <mxCell id="Reat6RJ21bzE8wcKO5tI-14" value="View product detalils" style="ellipse;whiteSpace=wrap;html=1;" vertex="1" parent="1">
          <mxGeometry x="280" y="-550" width="120" height="80" as="geometry" />
        </mxCell>
        <mxCell id="Reat6RJ21bzE8wcKO5tI-15" value="" style="endArrow=classic;html=1;rounded=0;exitX=1;exitY=0.3333333333333333;exitDx=0;exitDy=0;exitPerimeter=0;entryX=0;entryY=0.5;entryDx=0;entryDy=0;" edge="1" parent="1" source="J-1L54mdmwo8_7TflUuM-1" target="Reat6RJ21bzE8wcKO5tI-21">
          <mxGeometry width="50" height="50" relative="1" as="geometry">
            <mxPoint x="110" y="-130" as="sourcePoint" />
            <mxPoint x="280" y="-310" as="targetPoint" />
          </mxGeometry>
        </mxCell>
        <mxCell id="Reat6RJ21bzE8wcKO5tI-21" value="Evaluate" style="ellipse;whiteSpace=wrap;html=1;" vertex="1" parent="1">
          <mxGeometry x="280" y="-230" width="120" height="80" as="geometry" />
        </mxCell>
        <mxCell id="Reat6RJ21bzE8wcKO5tI-39" value="" style="shape=flexArrow;endArrow=classic;html=1;rounded=0;entryX=0.093;entryY=0.195;entryDx=0;entryDy=0;entryPerimeter=0;" edge="1" parent="1" target="Reat6RJ21bzE8wcKO5tI-40">
          <mxGeometry width="50" height="50" relative="1" as="geometry">
            <mxPoint x="390" y="-10" as="sourcePoint" />
            <mxPoint x="340" y="80" as="targetPoint" />
          </mxGeometry>
        </mxCell>
        <mxCell id="Reat6RJ21bzE8wcKO5tI-40" value="Register" style="ellipse;whiteSpace=wrap;html=1;" vertex="1" parent="1">
          <mxGeometry x="510" y="40" width="120" height="80" as="geometry" />
        </mxCell>
        <mxCell id="Reat6RJ21bzE8wcKO5tI-42" style="edgeStyle=orthogonalEdgeStyle;rounded=0;orthogonalLoop=1;jettySize=auto;html=1;exitX=0.5;exitY=1;exitDx=0;exitDy=0;" edge="1" parent="1" source="Reat6RJ21bzE8wcKO5tI-40" target="Reat6RJ21bzE8wcKO5tI-40">
          <mxGeometry relative="1" as="geometry" />
        </mxCell>
        <mxCell id="Reat6RJ21bzE8wcKO5tI-44" value="Add, delete product" style="ellipse;whiteSpace=wrap;html=1;" vertex="1" parent="1">
          <mxGeometry x="520" y="-70" width="120" height="80" as="geometry" />
        </mxCell>
        <mxCell id="Reat6RJ21bzE8wcKO5tI-45" value="" style="shape=flexArrow;endArrow=classic;html=1;rounded=0;exitX=0.983;exitY=0.36;exitDx=0;exitDy=0;exitPerimeter=0;entryX=0.01;entryY=0.635;entryDx=0;entryDy=0;entryPerimeter=0;" edge="1" parent="1" source="Reat6RJ21bzE8wcKO5tI-21" target="Reat6RJ21bzE8wcKO5tI-46">
          <mxGeometry width="50" height="50" relative="1" as="geometry">
            <mxPoint x="380" y="-220" as="sourcePoint" />
            <mxPoint x="520" y="-170" as="targetPoint" />
          </mxGeometry>
        </mxCell>
        <mxCell id="Reat6RJ21bzE8wcKO5tI-46" value="Star rating" style="ellipse;whiteSpace=wrap;html=1;" vertex="1" parent="1">
          <mxGeometry x="520" y="-300" width="120" height="80" as="geometry" />
        </mxCell>
        <mxCell id="Reat6RJ21bzE8wcKO5tI-47" value="" style="shape=flexArrow;endArrow=classic;html=1;rounded=0;exitX=0.977;exitY=0.695;exitDx=0;exitDy=0;exitPerimeter=0;entryX=0.03;entryY=0.41;entryDx=0;entryDy=0;entryPerimeter=0;" edge="1" parent="1" source="Reat6RJ21bzE8wcKO5tI-21" target="Reat6RJ21bzE8wcKO5tI-48">
          <mxGeometry width="50" height="50" relative="1" as="geometry">
            <mxPoint x="380" y="-120" as="sourcePoint" />
            <mxPoint x="520" y="-120" as="targetPoint" />
          </mxGeometry>
        </mxCell>
        <mxCell id="Reat6RJ21bzE8wcKO5tI-48" value="Comment" style="ellipse;whiteSpace=wrap;html=1;" vertex="1" parent="1">
          <mxGeometry x="520" y="-170" width="120" height="80" as="geometry" />
        </mxCell>
        <mxCell id="Reat6RJ21bzE8wcKO5tI-49" value="" style="shape=flexArrow;endArrow=classic;html=1;rounded=0;exitX=0.973;exitY=0.345;exitDx=0;exitDy=0;exitPerimeter=0;entryX=0;entryY=0.5;entryDx=0;entryDy=0;" edge="1" parent="1" source="Reat6RJ21bzE8wcKO5tI-14" target="Reat6RJ21bzE8wcKO5tI-50">
          <mxGeometry width="50" height="50" relative="1" as="geometry">
            <mxPoint x="410" y="-410" as="sourcePoint" />
            <mxPoint x="520" y="-420" as="targetPoint" />
          </mxGeometry>
        </mxCell>
        <mxCell id="Reat6RJ21bzE8wcKO5tI-50" value="Tym, share, add to cart" style="ellipse;whiteSpace=wrap;html=1;" vertex="1" parent="1">
          <mxGeometry x="520" y="-600" width="120" height="80" as="geometry" />
        </mxCell>
        <mxCell id="Reat6RJ21bzE8wcKO5tI-51" value="" style="shape=flexArrow;endArrow=classic;html=1;rounded=0;entryX=0;entryY=0.5;entryDx=0;entryDy=0;exitX=0.987;exitY=0.645;exitDx=0;exitDy=0;exitPerimeter=0;" edge="1" parent="1" source="Reat6RJ21bzE8wcKO5tI-14" target="Reat6RJ21bzE8wcKO5tI-52">
          <mxGeometry width="50" height="50" relative="1" as="geometry">
            <mxPoint x="390" y="-492" as="sourcePoint" />
            <mxPoint x="520" y="-430" as="targetPoint" />
          </mxGeometry>
        </mxCell>
        <mxCell id="Reat6RJ21bzE8wcKO5tI-52" value="Product details" style="ellipse;whiteSpace=wrap;html=1;" vertex="1" parent="1">
          <mxGeometry x="520" y="-500" width="120" height="80" as="geometry" />
        </mxCell>
        <mxCell id="Reat6RJ21bzE8wcKO5tI-58" value="" style="endArrow=classic;html=1;rounded=0;exitX=1;exitY=0.3333333333333333;exitDx=0;exitDy=0;exitPerimeter=0;entryX=0;entryY=0.5;entryDx=0;entryDy=0;" edge="1" parent="1" source="J-1L54mdmwo8_7TflUuM-1" target="Reat6RJ21bzE8wcKO5tI-59">
          <mxGeometry width="50" height="50" relative="1" as="geometry">
            <mxPoint x="380" y="-320" as="sourcePoint" />
            <mxPoint x="280" y="-360" as="targetPoint" />
          </mxGeometry>
        </mxCell>
        <mxCell id="Reat6RJ21bzE8wcKO5tI-59" value="Instruct" style="ellipse;whiteSpace=wrap;html=1;" vertex="1" parent="1">
          <mxGeometry x="280" y="-400" width="120" height="80" as="geometry" />
        </mxCell>
        <mxCell id="Reat6RJ21bzE8wcKO5tI-62" value="" style="shape=flexArrow;endArrow=classic;html=1;rounded=0;exitX=0.963;exitY=0.375;exitDx=0;exitDy=0;exitPerimeter=0;entryX=0;entryY=0.5;entryDx=0;entryDy=0;" edge="1" parent="1" source="J-1L54mdmwo8_7TflUuM-11" target="Reat6RJ21bzE8wcKO5tI-63">
          <mxGeometry width="50" height="50" relative="1" as="geometry">
            <mxPoint x="430" y="380" as="sourcePoint" />
            <mxPoint x="440" y="290" as="targetPoint" />
          </mxGeometry>
        </mxCell>
        <mxCell id="Reat6RJ21bzE8wcKO5tI-63" value="Add, edit delete product" style="ellipse;whiteSpace=wrap;html=1;" vertex="1" parent="1">
          <mxGeometry x="440" y="240" width="120" height="80" as="geometry" />
        </mxCell>
        <mxCell id="Reat6RJ21bzE8wcKO5tI-64" value="" style="endArrow=classic;html=1;rounded=0;exitX=1;exitY=0.3333333333333333;exitDx=0;exitDy=0;exitPerimeter=0;entryX=0;entryY=0.5;entryDx=0;entryDy=0;" edge="1" parent="1" source="J-1L54mdmwo8_7TflUuM-3" target="Reat6RJ21bzE8wcKO5tI-65">
          <mxGeometry width="50" height="50" relative="1" as="geometry">
            <mxPoint x="430" y="480" as="sourcePoint" />
            <mxPoint x="200" y="480" as="targetPoint" />
          </mxGeometry>
        </mxCell>
        <mxCell id="Reat6RJ21bzE8wcKO5tI-65" value="User account management" style="ellipse;whiteSpace=wrap;html=1;" vertex="1" parent="1">
          <mxGeometry x="200" y="440" width="120" height="80" as="geometry" />
        </mxCell>
        <mxCell id="Reat6RJ21bzE8wcKO5tI-66" value="" style="shape=flexArrow;endArrow=classic;html=1;rounded=0;exitX=0.937;exitY=0.23;exitDx=0;exitDy=0;exitPerimeter=0;" edge="1" parent="1" source="Reat6RJ21bzE8wcKO5tI-65">
          <mxGeometry width="50" height="50" relative="1" as="geometry">
            <mxPoint x="430" y="480" as="sourcePoint" />
            <mxPoint x="440" y="420" as="targetPoint" />
          </mxGeometry>
        </mxCell>
        <mxCell id="Reat6RJ21bzE8wcKO5tI-67" value="Login" style="ellipse;whiteSpace=wrap;html=1;" vertex="1" parent="1">
          <mxGeometry x="440" y="370" width="120" height="80" as="geometry" />
        </mxCell>
        <mxCell id="Reat6RJ21bzE8wcKO5tI-68" value="" style="shape=flexArrow;endArrow=classic;html=1;rounded=0;exitX=0.983;exitY=0.75;exitDx=0;exitDy=0;exitPerimeter=0;" edge="1" parent="1" source="Reat6RJ21bzE8wcKO5tI-65" target="Reat6RJ21bzE8wcKO5tI-69">
          <mxGeometry width="50" height="50" relative="1" as="geometry">
            <mxPoint x="430" y="480" as="sourcePoint" />
            <mxPoint x="440" y="520" as="targetPoint" />
          </mxGeometry>
        </mxCell>
        <mxCell id="Reat6RJ21bzE8wcKO5tI-69" value="Register" style="ellipse;whiteSpace=wrap;html=1;" vertex="1" parent="1">
          <mxGeometry x="440" y="480" width="120" height="80" as="geometry" />
        </mxCell>
        <mxCell id="Reat6RJ21bzE8wcKO5tI-70" value="" style="endArrow=classic;html=1;rounded=0;exitX=1;exitY=0.3333333333333333;exitDx=0;exitDy=0;exitPerimeter=0;entryX=0;entryY=0.5;entryDx=0;entryDy=0;" edge="1" parent="1" source="J-1L54mdmwo8_7TflUuM-3" target="Reat6RJ21bzE8wcKO5tI-71">
          <mxGeometry width="50" height="50" relative="1" as="geometry">
            <mxPoint x="430" y="580" as="sourcePoint" />
            <mxPoint x="200" y="610" as="targetPoint" />
          </mxGeometry>
        </mxCell>
        <mxCell id="Reat6RJ21bzE8wcKO5tI-71" value="View order history" style="ellipse;whiteSpace=wrap;html=1;" vertex="1" parent="1">
          <mxGeometry x="200" y="580" width="120" height="80" as="geometry" />
        </mxCell>
      </root>
    </mxGraphModel>
  </diagram>
</mxfile>
